<?xml version="1.0" encoding="UTF-8"?>
<svg id="Layer_2" data-name="Layer 2" xmlns="http://www.w3.org/2000/svg" viewBox="0 0 148.94 148.96">
  <defs>
    <style>
      .cls-1 {
        fill: #b7cbdf;
      }
    </style>
  </defs>
  <g id="Layer_1-2" data-name="Layer 1">
    <path class="cls-1" d="m83.13,148.96h-17.63c-.06-.66-.45-.92-1.08-.95-.66-.03-1.32-.05-1.98-.14-6.58-.88-12.84-2.88-18.83-5.65-14.84-6.88-26.33-17.45-34.26-31.77C2.36,97.83-.78,84.29.16,69.86c.72-11.1,3.7-21.56,9.12-31.31,7.39-13.3,17.87-23.41,31.36-30.37C49.07,3.83,58.03,1.25,67.52.35c5.6-.53,11.17-.48,16.7.28,6.57.9,12.98,2.56,19.1,5.2,10.75,4.63,20,11.28,27.59,20.19,8.98,10.54,14.7,22.62,16.91,36.33.2,1.26.26,2.55.43,3.82.05.36-.11,1.03.68.84v16.39c-.65.35-.87.96-.94,1.65-.74,6.98-2.77,13.62-5.68,19.96-7.13,15.56-18.32,27.4-33.45,35.41-7.47,3.96-15.38,6.67-23.83,7.68-.7.08-1.55,0-1.92.87Zm55.87-74.57c.26-35.16-28.16-63.49-62.33-64.52C38.85,8.74,10.66,38.82,9.81,72.65c-.93,37.11,29.36,66.93,65.51,66.44,35.12-.48,64.07-29.41,63.68-64.7Z"/>
    <g>
      <path class="cls-1" d="m116.94,75.94c-.59.45-.86,1.08-.95,1.79-.89,6.52-3.7,12.26-7.59,17.47-5.48,7.36-12.77,12.25-21.52,15.09-7.97,2.59-15.91,2.51-23.93.27-6.64-1.86-12.44-5.15-17.45-9.79-7.65-7.09-11.92-15.9-13.26-26.15-.3-2.31-.41-4.64-.28-6.96.1-1.89.34-2.13,2.2-2,1.97.15,3.92.42,5.88.64.76.08,1.03.43.94,1.23-.72,6.5.6,12.63,3.76,18.31,5.25,9.43,13.24,15.37,23.98,17.13,10.71,1.75,20.32-.9,28.46-8.25,6.34-5.72,9.88-12.86,10.79-21.27.24-2.22.23-4.48-.1-6.72-.25-1.67-.03-2.11,1.63-2.39,2.46-.42,4.93-1.04,7.45-.41v12.01Z"/>
      <g>
        <path class="cls-1" d="m74.9,34.45c-.25.85.23.99.9.96,3.3-.13,6.12,1.15,8.44,3.37,2.08,1.98,3.45,4.4,3.79,7.43.65,5.94-2.16,9.97-6.65,13.18-1.22.87-2.46,1.7-3.52,2.78-1.08,1.09-1.68,2.34-1.78,3.89-.12,1.79-.32,1.93-2.05,1.94-.97,0-1.94-.03-2.9,0-1.07.03-1.5-.46-1.54-1.54-.16-4.26,1.61-7.57,4.81-10.18,1.04-.84,2.15-1.59,3.19-2.43,3.37-2.72,3.95-7.21,1.21-10.11-2.08-2.19-4.81-2.45-7.53-1.77-2.52.63-3.95,2.57-4.53,5.1-.26,1.11-.37,2.23-.14,3.4.23,1.16-.05,1.36-1.21,1.24-1.4-.15-2.81-.27-4.21-.35-1.16-.06-1.64-.71-1.74-1.79-.14-1.53.03-3.04.5-4.47,1.58-4.77,4.39-8.31,9.48-9.52.92-.22,1.85-.16,2.77-.17.69,0,.99-.26.78-.97h1.94Z"/>
        <path class="cls-1" d="m68.37,77.28c.02-2.5,2.19-4.65,4.68-4.62,2.37.03,4.55,2.32,4.49,4.73-.06,2.5-2.24,4.57-4.8,4.58-2.26,0-4.38-2.27-4.37-4.69Z"/>
      </g>
    </g>
  </g>
</svg>