<svg width="24" height="24" viewBox="0 0 24 24" fill="none" xmlns="http://www.w3.org/2000/svg">
<circle cx="12" cy="12" r="12" fill="#038A39" fill-opacity="0.2"/>
<path fill-rule="evenodd" clip-rule="evenodd" d="M14.7335 7.35478C14.5173 7.24728 14.226 7.14858 13.8871 7.22997C13.7151 7.27128 13.5651 7.35133 13.4328 7.44929C12.0812 7.11729 10.6169 7.2999 9.44432 7.9449C8.15014 8.65682 7.20001 9.94494 7.20001 11.6954C7.20001 12.9978 7.7907 14.2374 8.84757 15.0805V16.166V16.7835L9.46504 16.792L10.0356 16.7999L10.0356 16.7999H10.0442H10.422V16.8L10.4309 16.7999L10.9823 16.792L11.5995 16.7833V16.166V16.1456C11.8612 16.1675 12.1214 16.1693 12.3765 16.1503V16.166V16.7839L12.9943 16.792L13.5872 16.7999L13.5872 16.7999H13.5955H13.9733V16.8L13.9825 16.7999L14.5116 16.792L15.1284 16.7829V16.166V15.0788C15.6806 14.6346 16.1234 14.0712 16.4125 13.4655H16.8202H17.4288L17.446 12.8571L17.5102 10.5879L17.5282 9.94982L16.8899 9.94414L16.4125 9.93989C16.1571 9.41021 15.7864 8.91725 15.3789 8.51355C15.3725 8.44953 15.363 8.37774 15.349 8.30247C15.3247 8.17185 15.2823 8.00527 15.2027 7.84425C15.1248 7.68665 14.9835 7.47911 14.7335 7.35478ZM10.3473 15.4147V15.5478H10.0997V14.7653V14.4349L9.82705 14.2485C8.93713 13.6399 8.45216 12.688 8.45216 11.6954C8.45216 10.4593 9.10045 9.56316 10.0478 9.04201C11.0141 8.51048 12.2783 8.38315 13.4057 8.74171L13.7826 8.86159L14.0528 8.5727C14.0759 8.54802 14.0962 8.5276 14.1139 8.51074L14.1179 8.53147C14.1301 8.59683 14.1362 8.66316 14.139 8.7152C14.1403 8.74042 14.1408 8.76041 14.141 8.7729L14.141 8.78529L14.141 8.78586L14.141 8.78644L14.141 8.7865L14.1352 9.07078L14.3487 9.2625C14.8177 9.68357 15.218 10.2386 15.4037 10.7691L15.5491 11.1844L15.989 11.1883L16.2405 11.1906L16.2116 12.2134H15.9946H15.55L15.4035 12.6331C15.193 13.2363 14.7462 13.836 14.1466 14.2501L13.8762 14.4368V14.7653V15.5478H13.6286V15.4147V14.6015L12.8424 14.8095C12.336 14.9435 11.7345 14.9483 11.1146 14.8048L10.3473 14.6272V15.4147ZM14.0773 8.39381L14.0787 8.39625C14.0782 8.39534 14.0779 8.3947 14.0777 8.39431C14.0774 8.39395 14.0773 8.39379 14.0773 8.39381ZM13.6517 10.8415V10.8415C13.6517 10.8763 13.6407 10.9455 13.5805 11.013C13.5133 11.0885 13.426 11.115 13.3664 11.115C13.3125 11.115 13.2447 11.0936 13.1888 11.0389C13.1337 10.985 13.1047 10.9124 13.1047 10.8415H13.3664H13.6264L13.3664 10.8415L13.1047 10.8414C13.1047 10.7706 13.1337 10.698 13.1889 10.6441C13.2448 10.5894 13.3126 10.568 13.3664 10.568C13.4259 10.568 13.5131 10.5944 13.5804 10.6699C13.6407 10.7375 13.6517 10.8067 13.6517 10.8415ZM13.3664 10.0715C13.1542 10.0715 12.9487 10.1536 12.8014 10.3189C12.6611 10.4764 12.6082 10.6697 12.6082 10.8415C12.6082 11.0134 12.6612 11.2068 12.8015 11.3642C12.9489 11.5295 13.1543 11.6115 13.3664 11.6115C13.7962 11.6115 14.148 11.2777 14.1482 10.8417V10.8415C14.1482 10.4056 13.7964 10.0715 13.3664 10.0715Z" fill="#038A39"/>
</svg>
